<svg width="152" height="150" viewBox="0 0 152 150" fill="none" xmlns="http://www.w3.org/2000/svg">
<path fill-rule="evenodd" clip-rule="evenodd" d="M247.238 52.7616C222.353 27.8742 187.974 12.4837 149.998 12.4837C112.024 12.4837 77.6443 27.8742 52.7593 52.7616C27.8742 77.6467 12.4814 112.026 12.4814 150C12.4814 187.976 27.8742 222.356 52.7593 247.241C77.6443 272.126 112.024 287.519 149.998 287.519C187.974 287.519 222.353 272.126 247.238 247.241C272.126 222.356 287.516 187.974 287.516 150C287.516 112.026 272.126 77.6467 247.238 52.7616ZM149.998 24.8333C115.434 24.8333 84.1427 38.8445 61.4936 61.4936C38.8422 84.1451 24.8333 115.437 24.8333 150C24.8333 184.563 38.8422 215.857 61.4936 238.506C84.1427 261.158 115.434 275.167 149.998 275.167C184.563 275.167 215.855 261.158 238.504 238.506C261.156 215.857 275.164 184.563 275.164 150C275.164 115.437 261.156 84.1451 238.504 61.4936C215.855 38.8445 184.563 24.8333 149.998 24.8333ZM61.882 61.882C84.4322 39.3317 115.587 25.384 149.998 25.384C184.41 25.384 215.565 39.3317 238.116 61.882C260.668 84.4346 274.616 115.587 274.616 150C274.616 184.413 260.668 215.568 238.116 238.118C215.565 260.668 184.41 274.618 149.998 274.618C115.587 274.618 84.4322 260.668 61.882 238.118C39.3294 215.568 25.3817 184.413 25.3817 150C25.3817 115.587 39.3294 84.4346 61.882 61.882ZM149.998 37.1852C118.847 37.1852 90.6411 49.8125 70.228 70.228C49.8125 90.6435 37.1852 118.847 37.1852 150C37.1852 181.153 49.8125 209.356 70.228 229.772C90.6411 250.187 118.847 262.815 149.998 262.815C181.15 262.815 209.357 250.187 229.77 229.772C250.185 209.356 262.812 181.153 262.812 150C262.812 118.847 250.185 90.6435 229.77 70.228C209.357 49.8125 181.15 37.1852 149.998 37.1852ZM70.6163 70.6163C90.9306 50.3021 118.998 37.7359 149.998 37.7359C181 37.7359 209.067 50.3021 229.381 70.6163C249.698 90.933 262.264 119 262.264 150C262.264 181.002 249.698 209.069 229.381 229.384C209.067 249.7 181 262.266 149.998 262.266C118.998 262.266 90.9306 249.7 70.6163 229.384C50.2997 209.069 37.7336 181.002 37.7336 150C37.7336 119 50.2997 90.933 70.6163 70.6163ZM149.998 49.5371C122.258 49.5371 97.1419 60.7828 78.96 78.9624C60.7805 97.1419 49.5371 122.258 49.5371 150C49.5371 177.742 60.7805 202.858 78.96 221.038C97.1419 239.217 122.258 250.463 149.998 250.463C177.74 250.463 202.856 239.217 221.038 221.038C239.217 202.858 250.461 177.742 250.461 150C250.461 122.258 239.217 97.1419 221.038 78.9624C202.856 60.7828 177.74 49.5371 149.998 49.5371ZM79.3484 79.3507C97.429 61.27 122.408 50.0879 149.998 50.0879C177.589 50.0879 202.569 61.27 220.649 79.3507C238.728 97.4314 249.912 122.411 249.912 150C249.912 177.592 238.728 202.569 220.649 220.649C202.569 238.73 177.589 249.914 149.998 249.914C122.408 249.914 97.429 238.73 79.3484 220.649C61.27 202.569 50.0855 177.592 50.0855 150C50.0855 122.411 61.27 97.4314 79.3484 79.3507ZM149.998 61.889C125.668 61.889 103.64 71.7531 87.6944 87.6967C71.7508 103.64 61.8891 125.67 61.8891 150C61.8891 174.332 71.7508 196.36 87.6944 212.303C103.64 228.249 125.668 238.111 149.998 238.111C174.33 238.111 196.357 228.249 212.303 212.303C228.247 196.36 238.109 174.332 238.109 150C238.109 125.67 228.247 103.64 212.303 87.6967C196.357 71.7531 174.33 61.889 149.998 61.889ZM88.0827 88.0851C103.93 72.2404 125.819 62.4398 149.998 62.4398C174.179 62.4398 196.07 72.2404 211.915 88.0851C227.76 103.93 237.56 125.821 237.56 150C237.56 174.179 227.76 196.07 211.915 211.915C196.07 227.762 174.179 237.563 149.998 237.563C125.819 237.563 103.93 227.762 88.0827 211.915C72.238 196.07 62.4374 174.179 62.4374 150C62.4374 125.821 72.238 103.93 88.0827 88.0851ZM202.689 97.309C216.175 110.793 224.514 129.424 224.514 150C224.514 170.578 216.175 189.207 202.689 202.691C189.205 216.175 170.576 224.516 149.998 224.516C129.422 224.516 110.793 216.175 97.309 202.691C83.8226 189.207 75.4837 170.578 75.4837 150C75.4837 129.424 83.8226 110.793 97.309 97.309C110.793 83.825 129.422 75.4837 149.998 75.4837C170.576 75.4837 189.205 83.825 202.689 97.309ZM192.973 107.027C203.971 118.023 210.773 133.219 210.773 150C210.773 166.784 203.971 181.977 192.973 192.975C181.977 203.974 166.781 210.776 149.998 210.776C133.216 210.776 118.021 203.974 107.025 192.975C96.0263 181.977 89.2243 166.784 89.2243 150C89.2243 133.219 96.0263 118.023 107.025 107.027C118.021 96.0286 133.216 89.2266 149.998 89.2266C166.781 89.2266 181.977 96.0286 192.973 107.027ZM150 0C191.419 0 228.92 16.7909 256.065 43.9331C283.209 71.0777 299.998 108.578 299.998 150C299.998 191.422 283.209 228.922 256.065 256.067C228.92 283.211 191.419 300 150 300C108.578 300 71.0777 283.211 43.9331 256.067C16.7885 228.922 0 191.422 0 150C0 108.578 16.7885 71.0777 43.9331 43.9331C71.0777 16.7909 108.578 0 150 0Z" fill="#4F627F" fill-opacity="0.5"/>
</svg>
