<svg width="53" height="52" viewBox="0 0 53 52" fill="none" xmlns="http://www.w3.org/2000/svg">
<path fill-rule="evenodd" clip-rule="evenodd" d="M28.1136 45.7039V39.6096C30.2544 39.6096 33.0313 38.2464 34.6571 37.1155C34.8894 36.9539 34.8591 36.9589 35.056 36.7973C36.6616 35.4947 37.8582 34.1465 38.8125 32.233C39.3628 31.1323 40.201 29.0875 40.201 27.5273H46.2952C46.2952 28.9158 45.5883 31.723 45.0783 33.0105C44.1695 35.3028 42.882 37.5698 41.1401 39.3319C40.8775 39.5945 40.822 39.7561 40.5847 39.9934L38.1561 42.0383C37.2776 42.6946 36.288 43.2399 35.2933 43.7397C33.4353 44.6788 30.1181 45.7039 28.1136 45.7039ZM6.88745 27.5273H12.9816C12.9816 29.7085 14.6428 33.3034 16.1575 34.914L16.8643 35.727C17.7176 36.5803 19.2828 37.686 20.3633 38.2212C21.464 38.7715 23.5089 39.6096 25.069 39.6096V45.7039C22.7768 45.7039 18.4598 44.3002 16.4958 43.0076C16.2332 42.8309 16.0615 42.7098 15.8293 42.5533C15.5718 42.3867 15.3547 42.2755 15.082 42.0786L12.5979 39.9934L9.66948 36.2218C9.32614 35.7068 9.13933 35.2675 8.85153 34.702C7.91746 32.844 6.88745 29.5268 6.88745 27.5273ZM25.069 15.4399V18.3835H28.1136V15.4399C28.462 15.6065 29.4061 15.7277 29.8959 15.8893C31.4813 16.4194 32.9607 17.3282 34.1118 18.4794C36.8333 21.2008 36.8484 23.8415 37.1564 24.4777H34.2078V27.5273H37.1564C36.7878 28.2847 36.8282 30.8092 34.1118 33.5205C31.3904 36.2419 28.7498 36.2571 28.1136 36.5651V33.6164H25.069V36.5651C24.3066 36.2015 21.7821 36.2369 19.0708 33.5205C18.4194 32.8692 17.6217 31.8342 17.1774 30.9456C16.1827 28.9461 16.2433 27.9666 16.0313 27.5273H18.9748V24.4777H16.0313C16.1979 24.1293 16.319 23.1902 16.4806 22.6954C17.0108 21.11 17.9196 19.6306 19.0708 18.4794C21.7922 15.758 24.4328 15.7428 25.069 15.4399ZM28.1136 6.29613C29.0477 6.29613 31.1329 6.71512 31.9105 6.96757C32.5365 7.17458 33.0465 7.2958 33.6019 7.5129C34.1421 7.73001 34.7228 7.97245 35.2277 8.2249C35.7225 8.47735 36.2122 8.6792 36.6869 8.99729C36.9494 9.16896 37.1261 9.29525 37.3584 9.44672C37.6159 9.61839 37.833 9.72439 38.1006 9.9213L39.9182 11.4562C40.1858 11.7188 40.3474 11.7693 40.5847 12.0066L42.6245 14.4351C43.2859 15.3136 43.8312 16.3033 44.3311 17.3031C45.0178 18.6612 45.149 19.2115 45.5984 20.605C45.8508 21.3977 46.2952 23.4629 46.2952 24.4777H40.201C40.201 22.2915 38.5398 18.7015 37.0302 17.0859C36.3839 16.4042 36.6061 16.5052 35.9194 15.9599C34.7329 15.0158 34.8036 14.7684 32.8193 13.7788C31.7237 13.2335 29.6788 12.3904 28.1136 12.3904V6.29613ZM12.9816 24.4777H6.88745C6.88745 22.1905 8.29109 17.8685 9.58869 15.9045C9.76036 15.6419 9.88659 15.4702 10.0381 15.238L12.5979 12.0066C12.8302 11.7794 12.9564 11.7491 13.2139 11.5068L16.3746 9.07815C18.3841 7.72501 22.7313 6.29613 25.069 6.29613V12.3904C22.8828 12.3904 19.2929 14.0514 17.6772 15.5661C16.9906 16.2073 17.0966 15.9903 16.5513 16.6719C15.6071 17.8635 15.3597 17.7928 14.3701 19.772C13.8248 20.8727 12.9816 22.9176 12.9816 24.4777ZM25.069 3.15059C21.2974 3.46363 17.8136 4.61989 14.9457 6.33151C14.6175 6.52337 14.456 6.63939 14.1429 6.8464C13.8097 7.06351 13.6633 7.12916 13.3452 7.37152C11.679 8.62873 11.2347 9.00236 9.81085 10.5373C6.22603 14.4149 4.20138 18.9238 3.74192 24.4777H0.591309V27.5273H3.74192C4.05496 31.2939 5.21117 34.7777 6.91775 37.6506L7.9629 39.2512C9.09893 40.7508 10.3511 42.22 11.7951 43.4419C15.4506 46.537 20.1109 48.4404 25.069 48.8545V52H28.1136V48.8545C33.304 48.4202 38.3227 46.3753 42.0035 42.8359C42.2913 42.5532 42.473 42.4725 42.7709 42.1797C43.9171 41.0335 45.4015 39.0997 46.2245 37.7163C47.9613 34.803 49.1277 31.3394 49.4458 27.5273H52.5913V24.4777H49.4458C49.0923 20.2517 47.8452 16.7678 45.7448 13.5515L44.6492 12.0066C44.4321 11.7491 44.2856 11.5167 44.0786 11.2592C43.1698 10.1384 41.7611 8.90641 40.6402 7.99254C37.2523 5.22567 32.6375 3.52422 28.1136 3.15059V0H25.069V3.15059Z" fill="#ED6B50"/>
</svg>
