<svg width="36" height="35" viewBox="0 0 36 35" fill="none" xmlns="http://www.w3.org/2000/svg">
<path fill-rule="evenodd" clip-rule="evenodd" d="M18.5907 30.7622V26.6603C20.0368 26.6603 21.9126 25.7428 23.0107 24.9816C23.1676 24.8728 23.1472 24.8762 23.2802 24.7674C24.3647 23.8906 25.173 22.9832 25.8176 21.6953C26.1893 20.9544 26.7555 19.5781 26.7555 18.528H30.872C30.872 19.4626 30.3945 21.352 30.0501 22.2186C29.4362 23.7615 28.5665 25.2874 27.3898 26.4734C27.2125 26.6501 27.175 26.7589 27.0147 26.9186L25.3742 28.295C24.7808 28.7368 24.1123 29.1038 23.4405 29.4402C22.1854 30.0723 19.9447 30.7622 18.5907 30.7622ZM4.25291 18.528H8.36941C8.36941 19.9961 9.49147 22.4157 10.5146 23.4998L10.9921 24.047C11.5685 24.6213 12.6257 25.3656 13.3556 25.7258C14.0991 26.0962 15.4803 26.6603 16.5342 26.6603V30.7622C14.9858 30.7622 12.0698 29.8174 10.7431 28.9475C10.5658 28.8285 10.4498 28.747 10.2929 28.6416C10.119 28.5295 9.97235 28.4547 9.78818 28.3221L8.1102 26.9186L6.13211 24.38C5.90019 24.0334 5.77401 23.7377 5.57961 23.3571C4.94866 22.1065 4.25291 19.8738 4.25291 18.528ZM16.5342 10.3922V12.3735H18.5907V10.3922C18.826 10.5044 19.4638 10.586 19.7946 10.6947C20.8655 11.0515 21.8648 11.6632 22.6424 12.4381C24.4807 14.2698 24.4909 16.0472 24.699 16.4754H22.7072V18.528H24.699C24.45 19.0378 24.4773 20.7369 22.6424 22.5619C20.8041 24.3936 19.0204 24.4038 18.5907 24.6111V22.6264H16.5342V24.6111C16.0192 24.3664 14.3139 24.3902 12.4825 22.5619C12.0425 22.1235 11.5037 21.4269 11.2035 20.8287C10.5317 19.483 10.5726 18.8237 10.4294 18.528H12.4177V16.4754H10.4294C10.5419 16.2409 10.6238 15.6088 10.7329 15.2757C11.091 14.2086 11.7049 13.2129 12.4825 12.4381C14.3208 10.6063 16.1045 10.5961 16.5342 10.3922ZM18.5907 4.23778C19.2217 4.23778 20.6302 4.51979 21.1554 4.68971C21.5783 4.82904 21.9228 4.91063 22.2979 5.05676C22.6629 5.20289 23.0551 5.36607 23.3961 5.53599C23.7304 5.70591 24.0612 5.84177 24.3818 6.05587C24.5591 6.17141 24.6785 6.25642 24.8354 6.35837C25.0093 6.47392 25.156 6.54526 25.3367 6.6778L26.5645 7.71092C26.7453 7.88764 26.8544 7.92165 27.0147 8.08138L28.3925 9.71594C28.8393 10.3073 29.2077 10.9734 29.5453 11.6463C30.0091 12.5605 30.0978 12.9308 30.4013 13.8688C30.5719 14.4023 30.872 15.7923 30.872 16.4754H26.7555C26.7555 15.0039 25.6334 12.5876 24.6137 11.5001C24.1771 11.0413 24.3272 11.1093 23.8634 10.7423C23.0619 10.1068 23.1097 9.9403 21.7693 9.27422C21.0292 8.90719 19.648 8.33966 18.5907 8.33966V4.23778ZM8.36941 16.4754H4.25291C4.25291 14.9359 5.20104 12.0269 6.07754 10.7049C6.1935 10.5282 6.27877 10.4126 6.38108 10.2563L8.1102 8.08138C8.26709 7.92845 8.35235 7.90806 8.52629 7.74494L10.6613 6.1103C12.0187 5.19953 14.9551 4.23778 16.5342 4.23778V8.33966C15.0574 8.33966 12.6325 9.45766 11.5412 10.4772C11.0774 10.9088 11.149 10.7627 10.7806 11.2215C10.1429 12.0235 9.97576 11.9759 9.3073 13.3081C8.93896 14.0489 8.36941 15.4253 8.36941 16.4754ZM16.5342 2.12059C13.9865 2.33129 11.6333 3.10954 9.69609 4.26159C9.47441 4.39073 9.36527 4.46882 9.15382 4.60815C8.92873 4.75428 8.82983 4.79847 8.61496 4.9616C7.48949 5.8078 7.18937 6.05928 6.2276 7.09239C3.80614 9.70236 2.43853 12.7372 2.12817 16.4754H0V18.528H2.12817C2.33962 21.0632 3.12062 23.408 4.27337 25.3417L4.97935 26.4191C5.74672 27.4284 6.59253 28.4173 7.56793 29.2397C10.0371 31.323 13.1851 32.6041 16.5342 32.8828V35H18.5907V32.8828C22.0967 32.5905 25.4868 31.2141 27.973 28.8319C28.1674 28.6416 28.2902 28.5873 28.4914 28.3902C29.2656 27.6187 30.2683 26.3171 30.8242 25.3859C31.9975 23.4251 32.7853 21.0938 33.0001 18.528H35.1249V16.4754H33.0001C32.7614 13.6309 31.919 11.286 30.5002 9.12122L29.7602 8.08138C29.6135 7.90806 29.5146 7.75166 29.3748 7.57834C28.7609 6.8239 27.8093 5.9947 27.0522 5.37959C24.7638 3.51728 21.6465 2.37207 18.5907 2.12059V0H16.5342V2.12059Z" fill="#ED6B50"/>
<path fill-rule="evenodd" clip-rule="evenodd" d="M14.4744 17.2944V17.7056C14.4744 19.1363 15.9204 20.5772 17.3563 20.5772H17.7689C19.2048 20.5772 20.6508 19.1363 20.6508 17.7056V17.2944C20.6508 15.867 19.2048 14.4261 17.7689 14.4261H17.3563C15.9204 14.4261 14.4744 15.867 14.4744 17.2944Z" fill="#ED6B50"/>
</svg>
