<svg width="472" height="102" viewBox="0 0 472 102" fill="none" xmlns="http://www.w3.org/2000/svg">
    <path d="M0 51L403.591 51" stroke="#ED6B50" stroke-width="3"/>
    <path fill-rule="evenodd" clip-rule="evenodd" d="M431.114 70.7039V64.6096C433.254 64.6096 436.031 63.2464 437.657 62.1155C437.889 61.9539 437.859 61.9589 438.056 61.7973C439.662 60.4947 440.858 59.1465 441.812 57.233C442.363 56.1323 443.201 54.0875 443.201 52.5273H449.295C449.295 53.9158 448.588 56.723 448.078 58.0105C447.17 60.3028 445.882 62.5698 444.14 64.3319C443.878 64.5945 443.822 64.7561 443.585 64.9934L441.156 67.0383C440.278 67.6946 439.288 68.2399 438.293 68.7397C436.435 69.6788 433.118 70.7039 431.114 70.7039ZM409.887 52.5273H415.982C415.982 54.7085 417.643 58.3034 419.157 59.914L419.864 60.727C420.718 61.5803 422.283 62.686 423.363 63.2212C424.464 63.7715 426.509 64.6096 428.069 64.6096V70.7039C425.777 70.7039 421.46 69.3002 419.496 68.0076C419.233 67.8309 419.062 67.7098 418.829 67.5533C418.572 67.3867 418.355 67.2755 418.082 67.0786L415.598 64.9934L412.669 61.2218C412.326 60.7068 412.139 60.2675 411.852 59.702C410.917 57.844 409.887 54.5268 409.887 52.5273ZM428.069 40.4399V43.3835H431.114V40.4399C431.462 40.6065 432.406 40.7277 432.896 40.8893C434.481 41.4194 435.961 42.3282 437.112 43.4794C439.833 46.2008 439.848 48.8415 440.156 49.4777H437.208V52.5273H440.156C439.788 53.2847 439.828 55.8092 437.112 58.5205C434.39 61.2419 431.75 61.2571 431.114 61.5651V58.6164H428.069V61.5651C427.307 61.2015 424.782 61.2369 422.071 58.5205C421.419 57.8692 420.622 56.8342 420.177 55.9456C419.183 53.9461 419.243 52.9666 419.031 52.5273H421.975V49.4777H419.031C419.198 49.1293 419.319 48.1902 419.481 47.6954C420.011 46.11 420.92 44.6306 422.071 43.4794C424.792 40.758 427.433 40.7428 428.069 40.4399ZM431.114 31.2961C432.048 31.2961 434.133 31.7151 434.91 31.9676C435.537 32.1746 436.046 32.2958 436.602 32.5129C437.142 32.73 437.723 32.9724 438.228 33.2249C438.722 33.4773 439.212 33.6792 439.687 33.9973C439.949 34.169 440.126 34.2953 440.358 34.4467C440.616 34.6184 440.833 34.7244 441.101 34.9213L442.918 36.4562C443.186 36.7188 443.347 36.7693 443.585 37.0066L445.625 39.4351C446.286 40.3136 446.831 41.3033 447.331 42.3031C448.018 43.6612 448.149 44.2115 448.598 45.605C448.851 46.3977 449.295 48.4629 449.295 49.4777H443.201C443.201 47.2915 441.54 43.7015 440.03 42.0859C439.384 41.4042 439.606 41.5052 438.919 40.9599C437.733 40.0158 437.804 39.7684 435.819 38.7788C434.724 38.2335 432.679 37.3904 431.114 37.3904V31.2961ZM415.982 49.4777H409.887C409.887 47.1905 411.291 42.8685 412.589 40.9045C412.76 40.6419 412.887 40.4702 413.038 40.238L415.598 37.0066C415.83 36.7794 415.956 36.7491 416.214 36.5068L419.375 34.0782C421.384 32.725 425.731 31.2961 428.069 31.2961V37.3904C425.883 37.3904 422.293 39.0514 420.677 40.5661C419.991 41.2073 420.097 40.9903 419.551 41.6719C418.607 42.8635 418.36 42.7928 417.37 44.772C416.825 45.8727 415.982 47.9176 415.982 49.4777ZM428.069 28.1506C424.297 28.4636 420.814 29.6199 417.946 31.3315C417.618 31.5234 417.456 31.6394 417.143 31.8464C416.81 32.0635 416.663 32.1292 416.345 32.3715C414.679 33.6287 414.235 34.0024 412.811 35.5373C409.226 39.4149 407.201 43.9238 406.742 49.4777H403.591V52.5273H406.742C407.055 56.2939 408.211 59.7777 409.918 62.6506L410.963 64.2512C412.099 65.7508 413.351 67.22 414.795 68.4419C418.451 71.537 423.111 73.4404 428.069 73.8545V77H431.114V73.8545C436.304 73.4202 441.323 71.3753 445.003 67.8359C445.291 67.5532 445.473 67.4725 445.771 67.1797C446.917 66.0335 448.401 64.0997 449.224 62.7163C450.961 59.803 452.128 56.3394 452.446 52.5273H455.591V49.4777H452.446C452.092 45.2517 450.845 41.7678 448.745 38.5515L447.649 37.0066C447.432 36.7491 447.286 36.5167 447.079 36.2592C446.17 35.1384 444.761 33.9064 443.64 32.9925C440.252 30.2257 435.638 28.5242 431.114 28.1506V25H428.069V28.1506Z" fill="#ED6B50"/>
</svg>
