<svg width="35" height="35" viewBox="0 0 35 35" fill="none" xmlns="http://www.w3.org/2000/svg">
<path fill-rule="evenodd" clip-rule="evenodd" d="M18.5246 30.7622V26.6603C19.9655 26.6603 21.8346 25.7428 22.9289 24.9816C23.0853 24.8728 23.0649 24.8762 23.1974 24.7674C24.2781 23.8906 25.0835 22.9832 25.7258 21.6953C26.0962 20.9544 26.6604 19.5781 26.6604 18.528H30.7622C30.7622 19.4626 30.2864 21.352 29.9432 22.2186C29.3315 23.7615 28.4649 25.2874 27.2925 26.4734C27.1157 26.6501 27.0784 26.7589 26.9186 26.9186L25.284 28.295C24.6927 28.7368 24.0266 29.1038 23.3571 29.4402C22.1065 30.0723 19.8738 30.7622 18.5246 30.7622ZM4.23779 18.528H8.33965C8.33965 19.9961 9.45772 22.4157 10.4772 23.4998L10.953 24.047C11.5273 24.6213 12.5808 25.3656 13.3081 25.7258C14.0489 26.0962 15.4253 26.6603 16.4754 26.6603V30.7622C14.9325 30.7622 12.0269 29.8174 10.7049 28.9475C10.5282 28.8285 10.4127 28.747 10.2563 28.6416C10.083 28.5295 9.93689 28.4547 9.75338 28.3221L8.08137 26.9186L6.11031 24.38C5.87922 24.0334 5.75348 23.7377 5.55977 23.3571C4.93107 22.1065 4.23779 19.8738 4.23779 18.528ZM16.4754 10.3922V12.3735H18.5246V10.3922C18.7591 10.5044 19.3946 10.586 19.7243 10.6947C20.7913 11.0515 21.7871 11.6632 22.5619 12.4381C24.3936 14.2698 24.4038 16.0472 24.6111 16.4754H22.6265V18.528H24.6111C24.3631 19.0378 24.3902 20.7369 22.5619 22.5619C20.7302 24.3936 18.9528 24.4038 18.5246 24.6111V22.6264H16.4754V24.6111C15.9622 24.3664 14.263 24.3902 12.4381 22.5619C11.9997 22.1235 11.4628 21.4269 11.1637 20.8287C10.4942 19.483 10.535 18.8237 10.3923 18.528H12.3735V16.4754H10.3923C10.5044 16.2409 10.586 15.6088 10.6947 15.2757C11.0516 14.2086 11.6633 13.2129 12.4381 12.4381C14.2698 10.6063 16.0472 10.5961 16.4754 10.3922ZM18.5246 4.23778C19.1533 4.23778 20.5569 4.51979 21.0802 4.68971C21.5016 4.82904 21.8448 4.91063 22.2187 5.05676C22.5823 5.20289 22.9731 5.36607 23.3129 5.53599C23.646 5.70591 23.9756 5.84177 24.2951 6.05587C24.4718 6.17141 24.5907 6.25642 24.7471 6.35837C24.9204 6.47392 25.0665 6.54526 25.2466 6.6778L26.4701 7.71092C26.6502 7.88764 26.7589 7.92165 26.9186 8.08138L28.2916 9.71594C28.7368 10.3073 29.1038 10.9734 29.4402 11.6463C29.9024 12.5605 29.9908 12.9308 30.2932 13.8688C30.4632 14.4023 30.7622 15.7923 30.7622 16.4754H26.6604C26.6604 15.0039 25.5423 12.5876 24.5262 11.5001C24.0912 11.0413 24.2407 11.1093 23.7785 10.7423C22.9799 10.1068 23.0275 9.9403 21.6919 9.27422C20.9545 8.90719 19.5781 8.33966 18.5246 8.33966V4.23778ZM8.33965 16.4754H4.23779C4.23779 14.9359 5.18255 12.0269 6.05593 10.7049C6.17148 10.5282 6.25644 10.4126 6.35839 10.2563L8.08137 8.08138C8.23769 7.92845 8.32265 7.90806 8.49597 7.74494L10.6234 6.1103C11.9759 5.19953 14.9019 4.23778 16.4754 4.23778V8.33966C15.0039 8.33966 12.5876 9.45766 11.5001 10.4772C11.038 10.9088 11.1093 10.7627 10.7423 11.2215C10.1068 12.0235 9.94029 11.9759 9.27421 13.3081C8.90718 14.0489 8.33965 15.4253 8.33965 16.4754ZM16.4754 2.12059C13.9368 2.33129 11.5919 3.10954 9.66162 4.26159C9.44072 4.39073 9.33197 4.46882 9.12127 4.60815C8.89698 4.75428 8.79843 4.79847 8.58433 4.9616C7.46286 5.8078 7.16381 6.05928 6.20546 7.09239C3.79261 9.70236 2.42985 12.7372 2.1206 16.4754H0V18.528H2.1206C2.3313 21.0632 3.10953 23.408 4.25818 25.3417L4.96165 26.4191C5.72629 27.4284 6.56909 28.4173 7.54103 29.2397C10.0015 31.323 13.1382 32.6041 16.4754 32.8828V35H18.5246V32.8828C22.0182 32.5905 25.3962 31.2141 27.8736 28.8319C28.0673 28.6416 28.1896 28.5873 28.3901 28.3902C29.1616 27.6187 30.1607 26.3171 30.7146 25.3859C31.8837 23.4251 32.6687 21.0938 32.8828 18.528H35V16.4754H32.8828C32.6449 13.6309 31.8055 11.286 30.3918 9.12122L29.6543 8.08138C29.5082 7.90806 29.4097 7.75166 29.2703 7.57834C28.6586 6.8239 27.7105 5.9947 26.956 5.37959C24.6757 3.51728 21.5696 2.37207 18.5246 2.12059V0H16.4754V2.12059Z" fill="#777A5C"/>
</svg>
