<svg width="115" height="109" viewBox="0 0 115 109" fill="none" xmlns="http://www.w3.org/2000/svg">
<path d="M0.148193 19.8984V21.0113C0.148193 21.2452 0.546218 21.4431 1.00085 21.4431H2.93527C3.40518 21.4431 3.78883 21.2452 3.78883 21.0113V18.911C3.78883 18.6761 3.41955 18.4711 2.93527 18.4711H1.42763V16.9788H2.50939V17.827H3.78883V16.7511C3.78883 16.5027 3.41955 16.3193 2.93527 16.3193H1.00085C0.488716 16.3193 0.148193 16.5027 0.148193 16.7593V18.6987C0.148193 18.9182 0.503091 19.1305 1.00085 19.1305H2.50939V20.7845H1.42763V19.8984H0.148193ZM4.58398 21.4431H5.86431V19.3428H6.94518V21.4431H8.22551V16.3193H6.94518V18.6834H5.86431V16.3193H4.58398V21.4431ZM9.02066 21.0113C9.02066 21.2452 9.41869 21.4431 9.87422 21.4431H11.8086C12.2776 21.4431 12.6622 21.2452 12.6622 21.0113V16.7593C12.6622 16.5244 12.292 16.3193 11.8086 16.3193H9.87422C9.41869 16.3193 9.02066 16.5244 9.02066 16.7593V21.0113ZM11.3819 20.7845H10.301V16.9788H11.3819V20.7845ZM13.4573 21.0113C13.4573 21.2452 13.8554 21.4431 14.3109 21.4431H16.2453C16.7143 21.4431 17.098 21.2452 17.098 21.0113V16.7593C17.098 16.5244 16.7287 16.3193 16.2453 16.3193H14.3109C13.8554 16.3193 13.4573 16.5244 13.4573 16.7593V21.0113ZM15.8186 20.7845H14.7377V16.9788H15.8186V20.7845ZM18.6047 21.4431H19.8851V16.9788H21.0225V16.3193H17.4673V16.9788H18.6047V21.4431ZM21.3909 21.4431H22.6712V16.3193H21.3909V21.4431ZM23.4664 16.3193V21.4431H24.7467V18.6906L26.0271 21.4431H27.5347V16.3193H26.2544V18.8667L25.0315 16.3193H23.4664ZM31.9714 17.8568V16.7593C31.9714 16.5244 31.6012 16.3193 31.1178 16.3193H29.1834C28.7279 16.3193 28.3299 16.5244 28.3299 16.7593V21.0113C28.3299 21.2452 28.7279 21.4431 29.1834 21.4431H31.1178C31.5868 21.4431 31.9714 21.2452 31.9714 21.0113V18.9471H30.2643V19.6057H30.6911V20.7845H29.6102V16.9788H30.6911V17.8568H31.9714Z" fill="white"/>
<path d="M7.12931 29.8967V25.6645C7.12931 24.7621 6.42221 23.9717 5.49678 23.9717H1.79684C0.926217 23.9717 0.164307 24.7621 0.164307 25.6645V42.0574C0.164307 42.9607 0.926217 43.7222 1.79684 43.7222H5.49678C6.39525 43.7222 7.12931 42.9607 7.12931 42.0574V37.7692H4.68096V41.183H2.61266V26.511H4.68096V29.8967H7.12931ZM8.92537 43.7222H14.2587V41.183H11.3746V23.9717H8.92537V43.7222ZM15.8643 23.9717V42.0574C15.8643 42.9607 16.6262 43.7222 17.4968 43.7222H21.1968C22.0953 43.7222 22.8293 42.9607 22.8293 42.0574V23.9717H20.381V41.183H18.3127V23.9717H15.8643ZM25.0063 43.7222H30.3397C31.2373 43.7222 31.9722 42.9607 31.9722 42.0574V35.0601C31.9722 34.3546 31.5643 33.5651 30.8294 33.3953C31.319 33.2544 31.673 32.7187 31.673 32.0132V25.6645C31.673 24.7621 30.965 23.9717 30.0405 23.9717H25.0063V43.7222ZM27.4556 41.183V34.8063H29.523V41.183H27.4556ZM27.4556 26.511H29.2238V32.267H27.4556V26.511Z" fill="white"/>
<path fill-rule="evenodd" clip-rule="evenodd" d="M114.395 20.9499C104.857 32.5975 91.6529 38.8143 77.9223 43.6028C57.765 50.6335 25.2365 56.591 3.92276 55.1719C1.62445 55.0192 2.27405 55.0716 0 54.6145C2.50316 54.1105 1.39893 54.255 3.92276 54.0563C21.5203 52.6732 37.9023 50.1629 55.0489 45.6597C73.2637 40.8766 97.4534 32.8947 109.654 17.2209C110.647 15.8632 112.514 15.5976 113.823 16.6274C115.132 17.6572 115.388 19.5931 114.395 20.9499Z" fill="white"/>
<path d="M0.0935059 63.0544L4.39991 93.0001H11.2903L15.5967 63.0544H10.8851L7.84468 85.6451L4.80513 63.0544H0.0935059ZM17.8762 63.087H22.436V67.8159H17.8762V63.087ZM17.8762 72.3859V93.0001H22.436V72.4248L17.8762 72.3859ZM26.4899 63.0544V93.0001H31.0497V80.6018L35.2546 93.0001H39.9662L34.596 76.9767L39.4091 63.0544H34.596L31.0497 73.7192V63.0544H26.4899ZM44.9824 93.0001H49.5413V67.7825H53.5952V63.0544H40.9284V67.7825H44.9824V93.0001ZM56.128 89.8998C56.128 91.5809 57.5467 93.0001 59.1675 93.0001H66.058C67.73 93.0001 69.0984 91.5809 69.0984 89.8998V66.2071C69.0984 64.526 67.7813 63.0544 66.058 63.0544H59.1675C57.5467 63.0544 56.128 64.526 56.128 66.2071V89.8998ZM64.5387 88.272H60.6878V67.7825H64.5387V88.272ZM81.5612 93.0001H86.1219V81.4943C86.1219 80.1808 85.3618 78.7102 83.9934 78.3949C84.9054 78.132 85.5639 77.1339 85.5639 75.8204V66.2071C85.5639 64.526 84.2468 63.0544 82.5244 63.0544H73.1515V93.0001H77.7112V81.0218H81.5612V93.0001ZM77.7112 67.7825H81.0042V76.2938H77.7112V67.7825ZM93.67 83.6812H98.2298V83.0182L103.702 63.0544H98.9899L95.9503 75.6632L92.9108 63.0544H88.1983L93.67 83.0182V83.6812Z" fill="white"/>
<path d="M96.4005 87.1392H95.5011C94.1648 87.1392 93.0815 88.4307 93.0815 90.0239C93.0815 91.6172 94.1648 92.9088 95.5011 92.9088H96.4005C97.7368 92.9088 98.8201 91.6172 98.8201 90.0239C98.8201 88.4307 97.7368 87.1392 96.4005 87.1392Z" fill="#ED6B50"/>
</svg>
