<svg width="69" height="46" viewBox="0 0 69 46" fill="none" xmlns="http://www.w3.org/2000/svg">
<path d="M0.0888672 2.32654V2.99069C0.0888672 3.13031 0.327682 3.24837 0.60046 3.24837H1.76111C2.04306 3.24837 2.27325 3.13031 2.27325 2.99069V1.73731C2.27325 1.59715 2.05168 1.47478 1.76111 1.47478H0.856526V0.58421H1.50559V1.09041H2.27325V0.448359C2.27325 0.30011 2.05168 0.190674 1.76111 0.190674H0.60046C0.293181 0.190674 0.0888672 0.300108 0.0888672 0.453209V1.61063C0.0888672 1.74163 0.301806 1.86831 0.60046 1.86831H1.50559V2.85538H0.856526V2.32654H0.0888672ZM2.75034 3.24837H3.51854V1.995H4.16706V3.24837H4.93526V0.190674H4.16706V1.60147H3.51854V0.190674H2.75034V3.24837ZM5.41235 2.99069C5.41235 3.13031 5.65116 3.24837 5.92448 3.24837H7.08514C7.36654 3.24837 7.59727 3.13031 7.59727 2.99069V0.453209C7.59727 0.313046 7.37517 0.190674 7.08514 0.190674H5.92448C5.65116 0.190674 5.41235 0.313046 5.41235 0.453209V2.99069ZM6.82907 2.85538H6.18055V0.58421H6.82907V2.85538ZM8.07436 2.99069C8.07436 3.13031 8.31318 3.24837 8.58649 3.24837H9.74715C10.0286 3.24837 10.2587 3.13031 10.2587 2.99069V0.453209C10.2587 0.313046 10.0372 0.190674 9.74715 0.190674H8.58649C8.31318 0.190674 8.07436 0.313046 8.07436 0.453209V2.99069ZM9.49108 2.85538H8.84256V0.58421H9.49108V2.85538ZM11.1628 3.24837H11.931V0.58421H12.6135V0.190674H10.4803V0.58421H11.1628V3.24837ZM12.8345 3.24837H13.6027V0.190674H12.8345V3.24837ZM14.0798 0.190674V3.24837H14.848V1.60578L15.6162 3.24837H16.5208V0.190674H15.7526V1.7109L15.0189 0.190674H14.0798ZM19.1828 1.1082V0.453209C19.1828 0.313046 18.9607 0.190674 18.6707 0.190674H17.51C17.2367 0.190674 16.9979 0.313046 16.9979 0.453209V2.99069C16.9979 3.13031 17.2367 3.24837 17.51 3.24837H18.6707C18.9521 3.24837 19.1828 3.13031 19.1828 2.99069V1.75888H18.1585V2.15187H18.4146V2.85538H17.7661V0.58421H18.4146V1.1082H19.1828Z" fill="white"/>
<path d="M4.27763 8.2932V5.76757C4.27763 5.22902 3.85337 4.75732 3.29811 4.75732H1.07815C0.555779 4.75732 0.0986328 5.22902 0.0986328 5.76757V15.5504C0.0986328 16.0895 0.555779 16.5439 1.07815 16.5439H3.29811C3.8372 16.5439 4.27763 16.0895 4.27763 15.5504V12.9913H2.80862V15.0285H1.56764V6.2727H2.80862V8.2932H4.27763ZM5.35527 16.5439H8.55529V15.0285H6.82482V4.75732H5.35527V16.5439ZM9.51864 4.75732V15.5504C9.51864 16.0895 9.97578 16.5439 10.4982 16.5439H12.7181C13.2572 16.5439 13.6976 16.0895 13.6976 15.5504V4.75732H12.2286V15.0285H10.9877V4.75732H9.51864ZM15.0038 16.5439H18.2039C18.7424 16.5439 19.1834 16.0895 19.1834 15.5504V11.3746C19.1834 10.9536 18.9386 10.4824 18.4977 10.3811C18.7915 10.297 19.0039 9.9773 19.0039 9.55628V5.76757C19.0039 5.22902 18.5791 4.75732 18.0244 4.75732H15.0038V16.5439ZM16.4734 15.0285V11.2231H17.7138V15.0285H16.4734ZM16.4734 6.2727H17.5343V9.70776H16.4734V6.2727Z" fill="white"/>
<path fill-rule="evenodd" clip-rule="evenodd" d="M68.6371 2.95395C62.9141 9.90494 54.9917 13.6149 46.7534 16.4726C34.659 20.6683 15.1419 24.2236 2.35365 23.3767C0.974669 23.2856 1.36443 23.3169 0 23.0441C1.5019 22.7433 0.839359 22.8295 2.35365 22.7109C12.9122 21.8856 22.7414 20.3875 33.0293 17.7001C43.9582 14.8457 58.4721 10.0823 65.7923 0.728597C66.388 -0.0816502 67.5082 -0.240139 68.2937 0.37442C69.0791 0.988979 69.2328 2.14424 68.6371 2.95395Z" fill="white"/>
<path d="M0.0561523 28.0808L2.64 45.9515H6.77425L9.3581 28.0808H6.53112L4.70686 41.5623L2.88312 28.0808H0.0561523ZM10.7258 28.1002H13.4616V30.9223H10.7258V28.1002ZM10.7258 33.6496V45.9515H13.4616V33.6728L10.7258 33.6496ZM15.894 28.0808V45.9515H18.6299V38.5526L21.1528 45.9515H23.9798L20.7576 36.3892L23.6455 28.0808H20.7576L18.6299 34.4453V28.0808H15.894ZM26.9895 45.9515H29.7248V30.9024H32.1572V28.0808H24.5571V30.9024H26.9895V45.9515ZM33.6768 44.1014C33.6768 45.1046 34.5281 45.9515 35.5006 45.9515H39.6348C40.6381 45.9515 41.4591 45.1046 41.4591 44.1014V29.9622C41.4591 28.959 40.6688 28.0808 39.6348 28.0808H35.5006C34.5281 28.0808 33.6768 28.959 33.6768 29.9622V44.1014ZM38.7232 43.13H36.4127V30.9024H38.7232V43.13ZM48.9368 45.9515H51.6732V39.0852C51.6732 38.3014 51.2171 37.4237 50.3961 37.2356C50.9433 37.0787 51.3384 36.483 51.3384 35.6992V29.9622C51.3384 28.959 50.5481 28.0808 49.5147 28.0808H43.8909V45.9515H46.6268V38.8032H48.9368V45.9515ZM46.6268 30.9024H48.6025V35.9817H46.6268V30.9024ZM56.2021 40.3903H58.9379V39.9946L62.221 28.0808H59.394L57.5703 35.6054L55.7465 28.0808H52.919L56.2021 39.9946V40.3903Z" fill="white"/>
<path d="M57.8403 42.4539H57.3006C56.4988 42.4539 55.8489 43.2246 55.8489 44.1754C55.8489 45.1262 56.4988 45.897 57.3006 45.897H57.8403C58.642 45.897 59.292 45.1262 59.292 44.1754C59.292 43.2246 58.642 42.4539 57.8403 42.4539Z" fill="#ED6B50"/>
</svg>
